# xmcd CD database file
#
# Track frame offsets:
#	150
#	26187
#	55972
#	96855
#	127662
#	154690
#	183277
#	217017
#	244725
#	270237
#
# Disc length: 3847 seconds
#
# Revision: 0
# Processed by: cddbd v1.5.1PL2 Copyright (c) Steve Scherf et al.
# Submitted via: CDex 1.51
#
DISCID=810f050a
DTITLE=Jake Hanna and his After Hours Gang - The Joint is Jumpin'
DYEAR=1998
DGENRE=Jazz
TTITLE0=Exactly Like You
TTITLE1=My Ideal
TTITLE2=P Town
TTITLE3=You'd Be So Nice to Come Home To
TTITLE4=These Foolish Things (Remind Me of You)
TTITLE5=Look for the Silver Lining
TTITLE6=Oh, Look at Me Now
TTITLE7=June Night
TTITLE8=Can't We Be Friends?
TTITLE9=The Joint is Jumpin'
EXTD=YEAR: 1998
EXTT0=
EXTT1=
EXTT2=
EXTT3=
EXTT4=
EXTT5=
EXTT6=
EXTT7=
EXTT8=
EXTT9=
PLAYORDER=
